<svg viewBox="0 0 270 183.02325112228002" height="183.02325112228002" width="270" style="width: 270px; height: 183.023px; position: absolute; top: 50%; left: 50%; z-index: 0; cursor: pointer; transform: translate(-50%, -50%) scale(0.775556);"><defs id="SvgjsDefs1024"></defs><g id="SvgjsG1025" featurekey="rootContainer" transform="matrix(2.3255814259134855,0,0,2.3255814259134855,0,0)" fill="#eff0f4"><path xmlns="http://www.w3.org/2000/svg" d="M116.1 78.7H0V0h116.1zM2 76.7h112.1V2H2z"></path></g><g id="SvgjsG1026" featurekey="monogramFeature-0" transform="matrix(1.8239853827343289,0,0,1.8239853827343289,86.24486981497762,-9.421342961283514)" fill="#d3d6db"><path d="M21.42 37.08 l2.28 -8.34 l24.96 0 l-2.28 8.34 l-16.62 0 l-5.94 22.2 l-8.34 0 z M13.14 37.08 l2.28 -8.34 l-8.34 0 l-2.28 8.34 l8.34 0 z"></path></g><g id="SvgjsG1027" featurekey="nameFeature-0" transform="matrix(0.7336825161763695,0,0,0.7336825161763695,34.42647957889382,110.6458300074537)" fill="#eff0f4"><path d="M20.02 11.777000000000001 l0 5.1563 l-6.6992 0 l0 23.066 l-5.8008 0 l0 -23.066 l-6.7383 0 l0 -5.1563 l19.238 0 z M42.724265625 40.39063 c-8.3008 0 -14.434 -5.6641 -14.434 -14.512 c0 -8.8672 6.1328 -14.492 14.434 -14.492 c8.2813 0 14.414 5.625 14.414 14.492 c0 8.8477 -6.1328 14.512 -14.414 14.512 z M42.724265625 35.0195 c4.8633 0 8.5938 -3.418 8.5938 -9.1406 c0 -5.7031 -3.7305 -9.1016 -8.5938 -9.1016 s-8.5938 3.3984 -8.5938 9.1016 c0 5.7227 3.7305 9.1406 8.5938 9.1406 z M68.3007375 40 l0 -28.223 l10.215 0 c9.0039 0 13.457 5.6641 13.457 14.102 c0 8.457 -4.4531 14.121 -13.457 14.121 l-10.215 0 z M74.1601375 34.8242 l4.0625 0 c5.1953 0 7.5781 -3.2422 7.5781 -8.9453 s-2.3828 -8.9453 -7.5781 -8.9453 l-4.0625 0 l0 17.891 z M115.732078125 40.39063 c-8.3008 0 -14.434 -5.6641 -14.434 -14.512 c0 -8.8672 6.1328 -14.492 14.434 -14.492 c8.2813 0 14.414 5.625 14.414 14.492 c0 8.8477 -6.1328 14.512 -14.414 14.512 z M115.732078125 35.0195 c4.8633 0 8.5938 -3.418 8.5938 -9.1406 c0 -5.7031 -3.7305 -9.1016 -8.5938 -9.1016 s-8.5938 3.3984 -8.5938 9.1016 c0 5.7227 3.7305 9.1406 8.5938 9.1406 z M157.67625 11.777000000000001 l0 5.1563 l-6.6992 0 l0 23.066 l-5.8008 0 l0 -23.066 l-6.7383 0 l0 -5.1563 l19.238 0 z M167.880815625 40 l0 -28.223 l5.8594 0 l0 28.223 l-5.8594 0 z M203.16453125 11.777000000000001 l0 5.1563 l-6.6992 0 l0 23.066 l-5.8008 0 l0 -23.066 l-6.7383 0 l0 -5.1563 l19.238 0 z M232.255796875 40 l-2.0508 -5.8203 l-11.855 0 l-2.0508 5.8203 l-5.9961 0 l10.391 -28.223 l7.168 0 l10.391 28.223 l-5.9961 0 z M220.068796875 29.277 l8.418 0 l-4.1992 -11.973 z M267.539375 11.777000000000001 l5.8398 0 l0 28.223 l-6.7773 0 l-12.5 -20.176 l0 20.176 l-5.8398 0 l0 -28.223 l6.6992 0 l12.578 20.059 l0 -20.059 z"></path></g></svg>